<svg width="64" height="64" xmlns="http://www.w3.org/2000/svg">
 <defs>
  <style>.cls-1{fill:none;}.cls-2{fill:#009ede;}.cls-3{fill:#0083ca;}.cls-4{fill:#fff;}</style>
 </defs>
 <g>
  <title>background</title>
  <rect fill="none" id="canvas_background" height="602" width="802" y="-1" x="-1"/>
 </g>
 <g>
  <title>Layer 1</title>
  <text xml:space="preserve" text-anchor="start" font-family="Helvetica, Arial, sans-serif" font-size="24" id="svg_20" y="59.80582" x="0.93797" stroke-width="0" stroke="#000" fill="#066dad">Clima</text>
  <path id="svg_1" d="m20.675,7.78505a15,15 0 0 0 -2.4,3.48l0.1,0a15,15 0 0 1 2.3,-3.48z" class="cls-1"/>
  <path id="svg_2" d="m21.125,7.35505l0.07,-0.06l-0.07,0.06z" class="cls-1"/>
  <path id="svg_3" d="m16.055,33.19505l-0.38,0l0.38,0z" class="cls-2"/>
  <path id="svg_4" d="m43.715,11.13505l0.12,0.21l-0.12,-0.21z" class="cls-2"/>
  <path id="svg_5" d="m15.045,33.05505l-0.48,-0.1l0.48,0.1z" class="cls-2"/>
  <path id="svg_6" d="m14.125,32.87505l-0.54,-0.16l0.54,0.16z" class="cls-2"/>
  <path id="svg_7" d="m13.245,32.45005a11.81,11.81 0 0 1 -2.93,-1.57c-2.13,-7.34 4.52,-14.78 12.17,-13.75c3.24,-7.3 12.75,-10.68 20,-7.31l0.22,-0.24l0.28,0.38a21.11,21.11 0 0 0 -2.7,-2.89a5.26,5.26 0 0 1 -0.16,-1.85c-7.14,-4.89 -18.25,-2.08 -21.76,5.92l-0.1,0l-0.25,0.47c-13.12,-1.35 -16.89,16.39 -4.77,20.84z" class="cls-2"/>
  <path fill="#d8d82f" id="svg_8" d="m53.49,14.89005c-2,-1 -3.92,-2.33 -6.38,-2.17c-0.82,-0.1 -1.65,0.38 -2.39,0c-0.82,-1 -1.19,-2.4 -2.1,-3.4l-0.22,0.24c-7.29,-3.37 -16.79,0 -20,7.31c-7.65,-1 -14.3,6.41 -12.17,13.75a11.6,11.6 0 0 0 6.77,2.26l30.11,0a10.63,10.63 0 0 0 7.58,-18.38a3.71,3.71 0 0 1 -1.2,0.39z" class="cls-3"/>
  <path transform="rotate(-9.32854, 30.7305, 7.38281)" id="svg_9" d="m34.85501,6.23505c-1.65,-0.77 -9.7,-0.6 -8.93,2.14a1,1 0 0 0 0.89,0.55a10.91,10.91 0 0 1 7.49,-0.76a1,1 0 0 0 0.55,-1.93z" class="cls-4"/>
  <path id="svg_10" d="m23.30501,10.25503c-0.59,0.5 -1.21,1.37 -0.46,2s1.42,0 1.87,-0.61c0.91,-0.88 -0.51,-2.32 -1.41,-1.39z" class="cls-4"/>
  <path id="svg_13" d="m47.535,11.53505a11.52,11.52 0 0 0 -1.3,0.09c-5.24,-11.9 -23,-11.89 -28.22,0c-16.07,-1.17 -17.41,22.31 -1.3,23l30.82,0c15.24,-0.49 15.25,-22.6 0,-23.09zm0,21.08l-30.82,0a9.55,9.55 0 0 1 -9.54,-9.54c-0.05,-10.3 14.4,-13.2 18.35,-3.67a1,1 0 0 0 1.31,0.54a1,1 0 0 0 0.54,-1.3a11.63,11.63 0 0 0 -7.35,-6.61c4.62,-9.77 19.58,-9.77 24.2,0a11.63,11.63 0 0 0 -7.35,6.61a1,1 0 0 0 0.54,1.3a1,1 0 0 0 1.31,-0.54c3.94,-9.53 18.4,-6.63 18.4,3.67a9.55,9.55 0 0 1 -9.59,9.54z"/>
  <g id="svg_21">
   <path id="svg_14" d="m20.75499,27.09023a1,1 0 0 0 -1.3,0.54l-5.94,14.24a1,1 0 0 0 0.92,1.39a1,1 0 0 0 0.93,-0.62l5.93,-14.25a1,1 0 0 0 -0.54,-1.3z"/>
   <path id="svg_15" d="m26.69499,25.38023a1,1 0 0 0 -1.31,0.54l-5.93,14.25a1,1 0 0 0 1.84,0.77l5.94,-14.25a1,1 0 0 0 -0.54,-1.31z"/>
   <path id="svg_16" d="m31.75499,27.09023a1,1 0 0 0 -1.3,0.54l-5.94,14.24a1,1 0 0 0 0.92,1.39a1,1 0 0 0 0.93,-0.62l5.93,-14.25a1,1 0 0 0 -0.54,-1.3z"/>
   <path id="svg_17" d="m37.69499,25.38023a1,1 0 0 0 -1.31,0.54l-5.93,14.25a1,1 0 0 0 0.54,1.3a1,1 0 0 0 1.3,-0.53l5.94,-14.25a1,1 0 0 0 -0.54,-1.31z"/>
   <path id="svg_18" d="m41.75499,27.09023a1,1 0 0 0 -1.3,0.54l-5.94,14.24a1,1 0 0 0 0.92,1.39a1,1 0 0 0 0.93,-0.62l5.93,-14.25a1,1 0 0 0 -0.54,-1.3z"/>
   <path id="svg_19" d="m47.69499,25.38023a1,1 0 0 0 -1.31,0.54l-5.93,14.25a1,1 0 0 0 0.54,1.3a1,1 0 0 0 1.3,-0.53l5.94,-14.25a1,1 0 0 0 -0.54,-1.31z"/>
  </g>
 </g>
</svg>